# xmcd CD database file
#
# Track frame offsets:
#	150
#	17157
#	38240
#	56752
#	78575
#	102619
#	123404
#	149221
#	181563
#	209460
#
# Disc length: 3038 seconds
#
# Revision: 0
# Processed by: cddbd v1.5.1PL2 Copyright (c) Steve Scherf et al.
# Submitted via: CDex 1.51
#
DISCID=930bdc0a
DTITLE=Synthphonia Suprema - Syntphony 001
DYEAR=2005
DGENRE=Symphonic Power Metal
TTITLE0=Fileader 001
TTITLE1=Nothing Can Stop Me 001
TTITLE2=Synth Metal 001
TTITLE3=Uncosmic Justice 001
TTITLE4=My War 001
TTITLE5=Black Cat 001
TTITLE6=Shield Saviour 001
TTITLE7=Fatherland 001
TTITLE8=Glacier Inside 001
TTITLE9=Battle Of The Living Dead
EXTD=YEAR: 2005
EXTT0=
EXTT1=
EXTT2=
EXTT3=
EXTT4=
EXTT5=
EXTT6=
EXTT7=
EXTT8=
EXTT9=
PLAYORDER=
